<mxfile host="app.diagrams.net" modified="2024-01-01T10:14:57.711Z" agent="Mozilla/5.0 (Windows NT 10.0; Win64; x64; rv:121.0) Gecko/20100101 Firefox/121.0" version="22.1.16" etag="LIOLHTjHB7rebviXLmp0" type="github">
  <diagram name="Page-1" id="vtT_5aadyHE9L_-WOR2H">
    <mxGraphModel>
      <root>
        <mxCell id="0" />
        <mxCell id="1" parent="0" />
      </root>
    </mxGraphModel>
  </diagram>
</mxfile>
